<?xml version="1.0" encoding="utf-8"?>
<!-- Generator: Adobe Illustrator 21.0.0, SVG Export Plug-In . SVG Version: 6.00 Build 0)  -->
<svg version="1.1" id="Capa_1" xmlns="http://www.w3.org/2000/svg" xmlns:xlink="http://www.w3.org/1999/xlink" x="0px" y="0px"
	 viewBox="0 0 171.3 28" style="enable-background:new 0 0 171.3 28;" xml:space="preserve">
<style type="text/css">
	.st0{fill:#542A27;}
	.st1{font-family:'Avenir-Light';}
	.st2{font-size:15.9778px;}
	.st3{font-family:'Avenir-Black';}
</style>
<text transform="matrix(1 0 0 1 61.6125 19.8404)"><tspan x="0" y="0" class="st0 st1 st2">rústica</tspan><tspan x="46.1" y="0" class="st0 st3 st2">mallorca</tspan></text>
<g>
	<path class="st0" d="M44.8,7.1c-0.7,0.7-2,2.2-3.5,3.9c-2.7-3.8-7.2-9.9-7.8-9.4c-1.5,1.5-5.6,6.2-9.4,10.7c-2.3-3-4.5-5.7-4.8-5.3
		C16.1,10.3,2,27.2,2,27.2S16.2,16,20.1,12.7c0.4,0.3,1.3,0.8,2.3,1.6c0.5,0.3,1,0.8,1.6,1.2c2,1.5,4.1,3.2,5,3.8
		c0.2,0.2-1.5-2.3-3.4-5c3.5-2.8,7.1-5.7,8.8-7.1c1,0.5,3.9,2.8,6.2,4.6c-5.3,6.1-13,15.3-13,15.3S41.7,16,45.7,12.7
		c1.5,0.8,7.2,5.5,8.8,6.6C54.9,19.7,45.5,6.3,44.8,7.1z"/>
</g>
</svg>
