<?xml version="1.0" encoding="utf-8"?>
<!-- Generator: Adobe Illustrator 21.0.0, SVG Export Plug-In . SVG Version: 6.00 Build 0)  -->
<svg version="1.1" id="Layer_1" xmlns="http://www.w3.org/2000/svg" xmlns:xlink="http://www.w3.org/1999/xlink" x="0px" y="0px"
	 viewBox="0 0 432 252" style="enable-background:new 0 0 432 252;" xml:space="preserve">
<style type="text/css">
	.st0{fill:#FFFFFF;}
</style>
<g>
	<path class="st0" d="M162,22.5c-2.6,2.7-7.4,8.1-13.2,14.8C138.6,23,121.6,0.1,119.5,2.1c-5.8,5.7-21.1,23.5-35.4,40.3
		c-8.6-11.1-16.9-21.3-18.1-20C53.9,34.5,1,98.1,1,98.1s53.3-42,68.2-54.5c1.7,0.9,5,3.1,8.7,6.1c1.8,1.3,3.9,3,6,4.5
		c7.4,5.7,15.3,12.1,18.6,14.4c0.6,0.6-5.5-8.5-12.9-18.9c13.3-10.6,26.8-21.3,33.1-26.8c3.8,2.1,14.6,10.5,23.4,17.4
		C126,63.4,97,98.1,97,98.1s53.3-42,68.4-54.5c5.5,3.1,27.1,20.6,33.1,25C200.1,69.7,164.9,19.5,162,22.5z"/>
</g>
</svg>
